<svg width="51" height="20" viewBox="0 0 51 20" fill="none" xmlns="http://www.w3.org/2000/svg">
<rect width="51" height="20" rx="6" fill="url(#paint0_linear_7790_9411)"/>
<path d="M11.6862 9.12C11.6862 9.47333 11.6028 9.80667 11.4362 10.12C11.2695 10.4333 11.0028 10.69 10.6362 10.89C10.2695 11.0833 9.79951 11.18 9.22617 11.18H7.96617V14H6.82617V7.05H9.22617C9.75951 7.05 10.2095 7.14333 10.5762 7.33C10.9495 7.51 11.2262 7.75667 11.4062 8.07C11.5928 8.38333 11.6862 8.73333 11.6862 9.12ZM9.22617 10.25C9.65951 10.25 9.98284 10.1533 10.1962 9.96C10.4095 9.76 10.5162 9.48 10.5162 9.12C10.5162 8.36 10.0862 7.98 9.22617 7.98H7.96617V10.25H9.22617ZM15.1634 14.09C14.6434 14.09 14.1734 13.9733 13.7534 13.74C13.3334 13.5 13.0034 13.1667 12.7634 12.74C12.5234 12.3067 12.4034 11.8067 12.4034 11.24C12.4034 10.68 12.5268 10.1833 12.7734 9.75C13.0201 9.31667 13.3568 8.98333 13.7834 8.75C14.2101 8.51667 14.6868 8.4 15.2134 8.4C15.7401 8.4 16.2168 8.51667 16.6434 8.75C17.0701 8.98333 17.4068 9.31667 17.6534 9.75C17.9001 10.1833 18.0234 10.68 18.0234 11.24C18.0234 11.8 17.8968 12.2967 17.6434 12.73C17.3901 13.1633 17.0434 13.5 16.6034 13.74C16.1701 13.9733 15.6901 14.09 15.1634 14.09ZM15.1634 13.1C15.4568 13.1 15.7301 13.03 15.9834 12.89C16.2434 12.75 16.4534 12.54 16.6134 12.26C16.7734 11.98 16.8534 11.64 16.8534 11.24C16.8534 10.84 16.7768 10.5033 16.6234 10.23C16.4701 9.95 16.2668 9.74 16.0134 9.6C15.7601 9.46 15.4868 9.39 15.1934 9.39C14.9001 9.39 14.6268 9.46 14.3734 9.6C14.1268 9.74 13.9301 9.95 13.7834 10.23C13.6368 10.5033 13.5634 10.84 13.5634 11.24C13.5634 11.8333 13.7134 12.2933 14.0134 12.62C14.3201 12.94 14.7034 13.1 15.1634 13.1ZM20.2904 9.3C20.4837 9.04667 20.7471 8.83333 21.0804 8.66C21.4137 8.48667 21.7904 8.4 22.2104 8.4C22.6904 8.4 23.1271 8.52 23.5204 8.76C23.9204 8.99333 24.2337 9.32333 24.4604 9.75C24.6871 10.1767 24.8004 10.6667 24.8004 11.22C24.8004 11.7733 24.6871 12.27 24.4604 12.71C24.2337 13.1433 23.9204 13.4833 23.5204 13.73C23.1271 13.97 22.6904 14.09 22.2104 14.09C21.7904 14.09 21.4171 14.0067 21.0904 13.84C20.7637 13.6667 20.4971 13.4533 20.2904 13.2V16.62H19.1504V8.49H20.2904V9.3ZM23.6404 11.22C23.6404 10.84 23.5604 10.5133 23.4004 10.24C23.2471 9.96 23.0404 9.75 22.7804 9.61C22.5271 9.46333 22.2537 9.39 21.9604 9.39C21.6737 9.39 21.4004 9.46333 21.1404 9.61C20.8871 9.75667 20.6804 9.97 20.5204 10.25C20.3671 10.53 20.2904 10.86 20.2904 11.24C20.2904 11.62 20.3671 11.9533 20.5204 12.24C20.6804 12.52 20.8871 12.7333 21.1404 12.88C21.4004 13.0267 21.6737 13.1 21.9604 13.1C22.2537 13.1 22.5271 13.0267 22.7804 12.88C23.0404 12.7267 23.2471 12.5067 23.4004 12.22C23.5604 11.9333 23.6404 11.6 23.6404 11.22ZM30.9177 8.49V14H29.7777V13.35C29.5977 13.5767 29.3611 13.7567 29.0677 13.89C28.7811 14.0167 28.4744 14.08 28.1477 14.08C27.7144 14.08 27.3244 13.99 26.9777 13.81C26.6377 13.63 26.3677 13.3633 26.1677 13.01C25.9744 12.6567 25.8777 12.23 25.8777 11.73V8.49H27.0077V11.56C27.0077 12.0533 27.1311 12.4333 27.3777 12.7C27.6244 12.96 27.9611 13.09 28.3877 13.09C28.8144 13.09 29.1511 12.96 29.3977 12.7C29.6511 12.4333 29.7777 12.0533 29.7777 11.56V8.49H30.9177ZM33.5619 6.6V14H32.4219V6.6H33.5619ZM34.6786 11.22C34.6786 10.6667 34.7919 10.1767 35.0186 9.75C35.2519 9.32333 35.5653 8.99333 35.9586 8.76C36.3586 8.52 36.7986 8.4 37.2786 8.4C37.7119 8.4 38.0886 8.48667 38.4086 8.66C38.7353 8.82667 38.9953 9.03667 39.1886 9.29V8.49H40.3386V14H39.1886V13.18C38.9953 13.44 38.7319 13.6567 38.3986 13.83C38.0653 14.0033 37.6853 14.09 37.2586 14.09C36.7853 14.09 36.3519 13.97 35.9586 13.73C35.5653 13.4833 35.2519 13.1433 35.0186 12.71C34.7919 12.27 34.6786 11.7733 34.6786 11.22ZM39.1886 11.24C39.1886 10.86 39.1086 10.53 38.9486 10.25C38.7953 9.97 38.5919 9.75667 38.3386 9.61C38.0853 9.46333 37.8119 9.39 37.5186 9.39C37.2253 9.39 36.9519 9.46333 36.6986 9.61C36.4453 9.75 36.2386 9.96 36.0786 10.24C35.9253 10.5133 35.8486 10.84 35.8486 11.22C35.8486 11.6 35.9253 11.9333 36.0786 12.22C36.2386 12.5067 36.4453 12.7267 36.6986 12.88C36.9586 13.0267 37.2319 13.1 37.5186 13.1C37.8119 13.1 38.0853 13.0267 38.3386 12.88C38.5919 12.7333 38.7953 12.52 38.9486 12.24C39.1086 11.9533 39.1886 11.62 39.1886 11.24ZM42.9759 9.29C43.1426 9.01 43.3626 8.79333 43.6359 8.64C43.9159 8.48 44.2459 8.4 44.6259 8.4V9.58H44.3359C43.8893 9.58 43.5493 9.69333 43.3159 9.92C43.0893 10.1467 42.9759 10.54 42.9759 11.1V14H41.8359V8.49H42.9759V9.29Z" fill="white"/>
<defs>
<linearGradient id="paint0_linear_7790_9411" x1="42.5" y1="3.79138e-06" x2="8.29903" y2="20.4536" gradientUnits="userSpaceOnUse">
<stop stop-color="#0698F9"/>
<stop offset="1" stop-color="#F906F9"/>
</linearGradient>
</defs>
</svg>
